<?xml version="1.0" encoding="UTF-8"?>
<svg width="24px" height="24px" viewBox="0 0 24 24" version="1.1" xmlns="http://www.w3.org/2000/svg">
    <title>Google Sheets</title>
    <g stroke="none" stroke-width="1" fill="none" fill-rule="evenodd">
        <path d="M19.5,3 L4.5,3 C3.67,3 3,3.67 3,4.5 L3,19.5 C3,20.33 3.67,21 4.5,21 L19.5,21 C20.33,21 21,20.33 21,19.5 L21,4.5 C21,3.67 20.33,3 19.5,3 Z M8,18 L5,18 L5,15 L8,15 L8,18 Z M8,14 L5,14 L5,11 L8,11 L8,14 Z M8,10 L5,10 L5,7 L8,7 L8,10 Z M19,18 L9,18 L9,15 L19,15 L19,18 Z M19,14 L9,14 L9,11 L19,11 L19,14 Z M19,10 L9,10 L9,7 L19,7 L19,10 Z" fill="#0F9D58"/>
    </g>
</svg>