<?xml version="1.0" encoding="UTF-8"?>
<svg width="24px" height="24px" viewBox="0 0 24 24" version="1.1" xmlns="http://www.w3.org/2000/svg">
    <title>OpenAI</title>
    <g stroke="none" stroke-width="1" fill="none" fill-rule="evenodd">
        <path d="M22.2819 9.8211a5.9847 5.9847 0 0 0-.5157-4.9108 6.0462 6.0462 0 0 0-6.5098-2.9A6.0651 6.0651 0 0 0 4.9807 4.1818a5.9847 5.9847 0 0 0-3.9977 2.9 6.0462 6.0462 0 0 0 .7427 7.0966 5.98 5.98 0 0 0 .511 4.9107 6.051 6.051 0 0 0 6.5146 2.9001A5.9847 5.9847 0 0 0 13.2599 24a6.0557 6.0557 0 0 0 5.7718-4.2058 5.9894 5.9894 0 0 0 3.9977-2.9001 6.0557 6.0557 0 0 0-.7475-7.0729zm-9.022 12.6081a4.4755 4.4755 0 0 1-2.8764-1.0408l.1419-.0804 4.7783-2.7582a.7948.7948 0 0 0 .3927-.6813v-6.7369l2.02 1.1686a.071.071 0 0 1 .038.052v5.5826a4.504 4.504 0 0 1-4.4945 4.4944zm-9.6607-4.1254a4.4708 4.4708 0 0 1-.5346-3.0137l.142.0852 4.783 2.7582a.7712.7712 0 0 0 .7806 0l5.8428-3.3685v2.3324a.0804.0804 0 0 1-.0332.0615L9.74 19.9502a4.4992 4.4992 0 0 1-6.1408-1.6464zM2.3408 7.8956a4.485 4.485 0 0 1 2.3655-1.9728V11.6a.0789.0789 0 0 1-.0284.0615L.7184 14.3092a.0804.0804 0 0 1-.0615.0142 4.4992 4.4992 0 0 1 1.6839-6.4278zM13.2599 1.5a4.4755 4.4755 0 0 1 2.8764 1.0408l-.142.0805L11.216 5.3795a.7948.7948 0 0 0-.3927.6813v6.7369l-2.02-1.1686a.071.071 0 0 1-.038-.052V6.0046A4.504 4.504 0 0 1 13.2599 1.5zm2.4899 10.6178v-3.537l1.8584 1.0741a.0789.0789 0 0 1 .0426.0615v3.537l-1.8584-1.0741a.0789.0789 0 0 1-.0426-.0615zm7.1705 2.7582a4.485 4.485 0 0 1-2.3655 1.9728V11.6a.0789.0789 0 0 1 .0284-.0615l3.9195-2.6479a.0804.0804 0 0 1 .0615-.0142 4.4992 4.4992 0 0 1-1.6839 6.4278z" fill="#000000"/>
    </g>
</svg>